<svg xmlns="http://www.w3.org/2000/svg" viewBox="0 0 1158 178"><defs><style>.a,.d{fill:#fff;}.a{font-size:40px;font-family:Rubik-Medium, Rubik;font-weight:500;}.b{font-size:50px;}.c{font-size:150px;}</style></defs><g transform="translate(-433 -235)"><text class="a" transform="translate(433 375)"><tspan x="0" y="0">EKM&apos;s</tspan><tspan class="b" y="0"> </tspan><tspan class="c" y="0">Confessionnal</tspan></text><path class="d" d="M61.521.046C55.3.4,42.947,1.68,35.31,6.355a1.755,1.755,0,0,0-.828,1.5v41.29a1.8,1.8,0,0,0,2.644,1.532c7.852-3.949,19.2-5.027,24.815-5.322a3.535,3.535,0,0,0,3.4-3.483V3.518A3.534,3.534,0,0,0,61.521.046Zm-31.487,6.3C22.409,1.68,10.053.4,3.835.046A3.55,3.55,0,0,0,0,3.518V41.847A3.543,3.543,0,0,0,3.4,45.33c5.617.3,16.974,1.373,24.826,5.333a1.787,1.787,0,0,0,2.632-1.532V7.819A1.706,1.706,0,0,0,30.034,6.344Z" transform="translate(451.267 280.845)"/></g></svg>